<svg width="23" height="22" viewBox="0 0 23 22" fill="none" xmlns="http://www.w3.org/2000/svg">
<path d="M15.55 1.7915C14.4667 0.708171 13.0583 0.166504 11.7583 0.166504C10.4583 0.166504 8.94165 0.708171 7.96665 1.7915L1.68332 7.85817C-0.483348 10.0248 -0.483348 13.3832 1.68332 15.5498C3.84999 17.7165 7.20832 17.7165 9.37499 15.5498L15.55 9.37484C17.6083 7.3165 17.6083 3.84984 15.55 1.7915ZM14.0333 7.85817L11 10.8915L7.09999 7.09984L2.33332 11.8665C2.33332 10.9998 2.54999 10.0248 3.30832 9.37484L9.48332 3.19984C10.025 2.65817 10.8917 2.33317 11.65 2.33317C12.4083 2.33317 13.275 2.65817 13.925 3.19984C15.225 4.60817 15.225 6.55817 14.0333 7.85817ZM19.2333 5.6915C19.2333 6.55817 19.0167 7.3165 18.8 8.18317C19.8833 9.48317 19.8833 11.4332 18.6917 12.6248L15.6583 15.6582L14.0333 14.0332L11 17.0665C9.59165 18.4748 7.64165 19.2332 5.79999 19.2332C6.01665 19.5582 6.23332 19.8832 6.55832 20.2082C8.72499 22.3748 12.0833 22.3748 14.25 20.2082L20.425 14.0332C22.5917 11.8665 22.5917 8.50817 20.425 6.3415C19.8833 6.12484 19.5583 5.90817 19.2333 5.6915Z" fill="#B1B1B1"/>
</svg>
