<svg width="22" height="24" viewBox="0 0 22 24" fill="none" xmlns="http://www.w3.org/2000/svg">
<path d="M0.333336 21.3332V9.33317C0.333336 8.91095 0.428002 8.51095 0.617336 8.13317C0.806669 7.75539 1.06756 7.44428 1.4 7.19984L9.4 1.19984C9.86667 0.844282 10.4 0.666504 11 0.666504C11.6 0.666504 12.1333 0.844282 12.6 1.19984L20.6 7.19984C20.9333 7.44428 21.1947 7.75539 21.384 8.13317C21.5733 8.51095 21.6676 8.91095 21.6667 9.33317V21.3332C21.6667 22.0665 21.4053 22.6945 20.8827 23.2172C20.36 23.7398 19.7324 24.0007 19 23.9998H15C14.6222 23.9998 14.3058 23.8718 14.0507 23.6158C13.7956 23.3598 13.6676 23.0434 13.6667 22.6665V15.9998C13.6667 15.6221 13.5387 15.3056 13.2827 15.0505C13.0267 14.7954 12.7102 14.6674 12.3333 14.6665H9.66667C9.28889 14.6665 8.97245 14.7945 8.71734 15.0505C8.46222 15.3065 8.33422 15.6229 8.33334 15.9998V22.6665C8.33334 23.0443 8.20534 23.3612 7.94934 23.6172C7.69334 23.8732 7.37689 24.0007 7 23.9998H3C2.26667 23.9998 1.63911 23.7389 1.11734 23.2172C0.595558 22.6954 0.334225 22.0674 0.333336 21.3332Z" fill="#52A8B0"/>
</svg>
