<svg width="24" height="22" viewBox="0 0 24 22" fill="none" xmlns="http://www.w3.org/2000/svg">
<path d="M20.8834 0.166504H9.3278V3.77762H12.2167V5.22206H2.8278C1.60002 5.22206 0.661133 6.16095 0.661133 7.38873V15.3332C0.661133 16.5609 1.60002 17.4998 2.8278 17.4998H3.55002V21.1832L8.10002 17.4998H12.9389V12.4443H20.8834C22.1111 12.4443 23.05 11.5054 23.05 10.2776V2.33317C23.05 1.10539 22.1111 0.166504 20.8834 0.166504ZM8.46113 14.5387L8.10002 13.3832H5.86113L5.4278 14.5387H3.69447L6.0778 8.11095H7.81113L10.1945 14.5387H8.46113ZM19.4389 8.83317V10.2776C18.5 10.2776 17.4889 9.98873 16.6222 9.55539C15.7556 9.98873 14.7445 10.2054 13.7334 10.2776L13.6611 8.83317C14.1667 8.83317 14.6722 8.76095 15.1778 8.6165C14.5278 7.9665 14.0945 7.17206 13.8778 6.30539H15.3945C15.6111 6.95539 16.0445 7.46095 16.55 7.89428C17.3445 7.24428 17.85 6.30539 17.9222 5.22206H13.5889V3.77762H15.7556V2.33317H17.2V3.77762H19.5834L19.6556 4.49984C19.7278 6.0165 19.15 7.53317 18.0667 8.6165C18.5722 8.76095 19.0056 8.83317 19.4389 8.83317Z" fill="black"/>
</svg>
