<svg width="18" height="24" viewBox="0 0 18 24" fill="none" xmlns="http://www.w3.org/2000/svg">
<path d="M7.125 18.875H10.875V15.75H14V12H10.875V8.875H7.125V12H4V15.75H7.125V18.875ZM2.75 23.25C2.0625 23.25 1.47417 23.0054 0.985 22.5163C0.495833 22.0271 0.250833 21.4383 0.25 20.75V7C0.25 6.3125 0.495 5.72417 0.985 5.235C1.475 4.74583 2.06333 4.50083 2.75 4.5H15.25C15.9375 4.5 16.5263 4.745 17.0163 5.235C17.5063 5.725 17.7508 6.31333 17.75 7V20.75C17.75 21.4375 17.5054 22.0263 17.0163 22.5163C16.5271 23.0063 15.9383 23.2508 15.25 23.25H2.75ZM1.5 3.25V0.75H16.5V3.25H1.5Z" fill="#B1B1B1"/>
</svg>
