<svg width="22" height="23" viewBox="0 0 22 23" fill="none" xmlns="http://www.w3.org/2000/svg">
<path d="M11 0.333496C8.83407 0.333496 6.75684 1.19391 5.22529 2.72546C3.69375 4.257 2.83333 6.33423 2.83333 8.50016V12.6162C2.8335 12.7971 2.79156 12.9757 2.71083 13.1377L0.707667 17.1428C0.609814 17.3385 0.563609 17.5559 0.57344 17.7745C0.583271 17.993 0.648811 18.2055 0.763836 18.3916C0.878861 18.5777 1.03955 18.7313 1.23064 18.8378C1.42174 18.9443 1.63689 19.0002 1.85567 19.0002H20.1443C20.3631 19.0002 20.5783 18.9443 20.7694 18.8378C20.9604 18.7313 21.1211 18.5777 21.2362 18.3916C21.3512 18.2055 21.4167 17.993 21.4266 17.7745C21.4364 17.5559 21.3902 17.3385 21.2923 17.1428L19.2903 13.1377C19.2092 12.9758 19.1669 12.7972 19.1667 12.6162V8.50016C19.1667 6.33423 18.3063 4.257 16.7747 2.72546C15.2432 1.19391 13.1659 0.333496 11 0.333496ZM11 22.5002C10.2759 22.5005 9.56952 22.2763 8.97819 21.8584C8.38686 21.4405 7.9397 20.8495 7.69833 20.1668H14.3017C14.0603 20.8495 13.6131 21.4405 13.0218 21.8584C12.4305 22.2763 11.7241 22.5005 11 22.5002Z" fill="#B1B1B1"/>
</svg>
