<svg width="21" height="17" viewBox="0 0 21 17" fill="none" xmlns="http://www.w3.org/2000/svg">
<path fill-rule="evenodd" clip-rule="evenodd" d="M2.16634 0.166626C1.61381 0.166626 1.0839 0.386119 0.693202 0.77682C0.302501 1.16752 0.0830078 1.69742 0.0830078 2.24996V14.75C0.0830078 15.3025 0.302501 15.8324 0.693202 16.2231C1.0839 16.6138 1.61381 16.8333 2.16634 16.8333H18.833C19.3855 16.8333 19.9154 16.6138 20.3061 16.2231C20.6968 15.8324 20.9163 15.3025 20.9163 14.75V2.24996C20.9163 1.69742 20.6968 1.16752 20.3061 0.77682C19.9154 0.386119 19.3855 0.166626 18.833 0.166626H2.16634ZM12.583 5.37496C12.583 5.09869 12.6928 4.83374 12.8881 4.63839C13.0835 4.44304 13.3484 4.33329 13.6247 4.33329H16.7497C17.0259 4.33329 17.2909 4.44304 17.4862 4.63839C17.6816 4.83374 17.7913 5.09869 17.7913 5.37496C17.7913 5.65123 17.6816 5.91618 17.4862 6.11153C17.2909 6.30688 17.0259 6.41663 16.7497 6.41663H13.6247C13.3484 6.41663 13.0835 6.30688 12.8881 6.11153C12.6928 5.91618 12.583 5.65123 12.583 5.37496ZM12.583 8.49996C12.583 8.22369 12.6928 7.95874 12.8881 7.76339C13.0835 7.56804 13.3484 7.45829 13.6247 7.45829H16.7497C17.0259 7.45829 17.2909 7.56804 17.4862 7.76339C17.6816 7.95874 17.7913 8.22369 17.7913 8.49996C17.7913 8.77623 17.6816 9.04118 17.4862 9.23653C17.2909 9.43188 17.0259 9.54163 16.7497 9.54163H13.6247C13.3484 9.54163 13.0835 9.43188 12.8881 9.23653C12.6928 9.04118 12.583 8.77623 12.583 8.49996ZM12.583 11.625C12.583 11.3487 12.6928 11.0837 12.8881 10.8884C13.0835 10.693 13.3484 10.5833 13.6247 10.5833H16.7497C17.0259 10.5833 17.2909 10.693 17.4862 10.8884C17.6816 11.0837 17.7913 11.3487 17.7913 11.625C17.7913 11.9012 17.6816 12.1662 17.4862 12.3615C17.2909 12.5569 17.0259 12.6666 16.7497 12.6666H13.6247C13.3484 12.6666 13.0835 12.5569 12.8881 12.3615C12.6928 12.1662 12.583 11.9012 12.583 11.625ZM4.24967 6.41663C4.24967 5.58782 4.57892 4.79297 5.16497 4.20692C5.75102 3.62087 6.54587 3.29163 7.37467 3.29163C8.20348 3.29163 8.99833 3.62087 9.58438 4.20692C10.1704 4.79297 10.4997 5.58782 10.4997 6.41663C10.4997 7.24543 10.1704 8.04028 9.58438 8.62634C8.99833 9.21239 8.20348 9.54163 7.37467 9.54163C6.54587 9.54163 5.75102 9.21239 5.16497 8.62634C4.57892 8.04028 4.24967 7.24543 4.24967 6.41663ZM6.27259 10.5833C5.61658 10.5831 4.97713 10.7893 4.44486 11.1727C3.91259 11.5562 3.51448 12.0974 3.30697 12.7198L3.26113 12.8583L3.25697 12.8708C3.21322 13.002 3.19967 13.0448 3.21322 13.0739C3.21947 13.0875 3.23405 13.0979 3.2528 13.1145C3.28613 13.1406 3.33613 13.1812 3.40488 13.276C3.5014 13.4098 3.62832 13.5188 3.77519 13.5939C3.92207 13.6691 4.08469 13.7083 4.24967 13.7083H10.4997C10.6647 13.7083 10.8273 13.6691 10.9742 13.5939C11.121 13.5188 11.248 13.4098 11.3445 13.276C11.3866 13.2147 11.4379 13.1603 11.4966 13.1145C11.5163 13.0979 11.5288 13.0875 11.5361 13.0729C11.5507 13.0448 11.5361 13.002 11.4924 12.8708L11.4882 12.8583L11.4424 12.7198C11.2349 12.0976 10.837 11.5565 10.3049 11.173C9.77285 10.7896 9.13363 10.5833 8.4778 10.5833H6.27259Z" fill="black"/>
</svg>
