<svg width="12" height="11" viewBox="0 0 12 11" fill="none" xmlns="http://www.w3.org/2000/svg">
<path d="M1.496 8.90233C1.23109 8.91404 0.972383 8.82007 0.776757 8.64106C0.581131 8.46206 0.464609 8.21268 0.452816 7.94778L0.170734 1.59008C0.15902 1.32517 0.252999 1.06646 0.432003 0.870833C0.611008 0.675207 0.86038 0.558685 1.12528 0.546892L7.48299 0.26481C7.7451 0.257741 7.9995 0.353904 8.1914 0.532586C8.3833 0.711267 8.49734 0.958173 8.50896 1.22012C8.52058 1.48207 8.42886 1.7381 8.25354 1.93308C8.07822 2.12805 7.83333 2.24637 7.57162 2.26254L3.68905 2.49568L10.6977 8.90884C10.8934 9.08788 11.0099 9.33731 11.0217 9.60227C11.0334 9.86722 10.9394 10.126 10.7604 10.3217C10.5814 10.5173 10.3319 10.6339 10.067 10.6456C9.80202 10.6574 9.54325 10.5634 9.34758 10.3843L2.33892 3.97119L2.45055 7.85915C2.46226 8.12405 2.36828 8.38276 2.18928 8.57839C2.01027 8.77402 1.7609 8.89054 1.496 8.90233Z" fill="black"/>
</svg>
