<svg width="20" height="20" viewBox="0 0 20 20" fill="none" xmlns="http://www.w3.org/2000/svg">
<path d="M9.67796 0.000174401C8.64816 -0.000168544 7.64527 0.328183 6.81505 0.937227C5.98466 1.54626 5.37049 2.40426 5.06152 3.38656L11.129 9.45405V9.45388C12.613 8.98904 13.7831 7.83906 14.2736 6.36329C14.7642 4.88753 14.5152 3.26586 13.6046 2.00509C12.6941 0.744492 11.233 -0.00170893 9.67778 2.93903e-06L9.67796 0.000174401Z" fill="#FF0000"/>
<path d="M16.5889 14.8789C16.4697 13.7228 15.9558 12.6429 15.134 11.8211C14.3122 10.9993 13.2323 10.4854 12.0762 10.3662L16.5889 14.8789Z" fill="#FF0000"/>
<path d="M1.18464 0.891814C1.00941 0.716409 0.753933 0.647995 0.51438 0.71212C0.27485 0.776416 0.0879577 0.963314 0.023644 1.20286C-0.040481 1.44239 0.0279304 1.69785 0.203338 1.87312L5.38636 7.05614H5.38619C5.8462 7.945 6.57063 8.66925 7.45949 9.12926L8.70345 10.3732H7.83259C6.49092 10.3751 5.2046 10.9083 4.25521 11.8564C3.30582 12.8046 2.77071 14.0902 2.76711 15.4319V18.6591C2.76711 18.8424 2.83981 19.0181 2.96944 19.1478C3.09907 19.2774 3.27481 19.3503 3.45811 19.3503H15.8973C16.0806 19.3503 16.2563 19.2774 16.386 19.1478C16.5156 19.0181 16.5883 18.8424 16.5883 18.6591V18.2513L18.1709 19.834C18.3489 19.9864 18.5918 20.0382 18.8164 19.9718C19.041 19.9053 19.2166 19.7297 19.2832 19.5051C19.3495 19.2805 19.2977 19.0375 19.1453 18.8595L1.18464 0.891814Z" fill="#FF0000"/>
</svg>
